<?xml version="1.0" encoding="UTF-8" standalone="no"?>
<!-- Created with Inkscape (http://www.inkscape.org/) -->

<svg
   width="210mm"
   height="297mm"
   viewBox="0 0 210 297"
   version="1.1"
   id="svg1"
   inkscape:version="1.4 (86a8ad7, 2024-10-11)"
   sodipodi:docname="template.svg"
   xmlns:inkscape="http://www.inkscape.org/namespaces/inkscape"
   xmlns:sodipodi="http://sodipodi.sourceforge.net/DTD/sodipodi-0.dtd"
   xmlns="http://www.w3.org/2000/svg"
   xmlns:svg="http://www.w3.org/2000/svg">
  <sodipodi:namedview
     id="namedview1"
     pagecolor="#ffffff"
     bordercolor="#000000"
     borderopacity="0.25"
     inkscape:showpageshadow="2"
     inkscape:pageopacity="0.0"
     inkscape:pagecheckerboard="0"
     inkscape:deskcolor="#d1d1d1"
     inkscape:document-units="mm"
     inkscape:zoom="1.087256"
     inkscape:cx="383.53432"
     inkscape:cy="577.14097"
     inkscape:window-width="1920"
     inkscape:window-height="1009"
     inkscape:window-x="-8"
     inkscape:window-y="-8"
     inkscape:window-maximized="1"
     inkscape:current-layer="layer1" />
  <defs
     id="defs1">
    <rect
       x="61.133749"
       y="348.59244"
       width="667.26836"
       height="323.8788"
       id="rect1" />
    <clipPath
       clipPathUnits="userSpaceOnUse"
       id="clipEmfPath1">
      <path
         d="M 399.16291,752.25009 L 660.41863,752.25009 L 660.41863,871.27903 L 399.16291,871.27903 z"
         id="path1" />
    </clipPath>
    <pattern
       id="EMFhbasepattern"
       patternUnits="userSpaceOnUse"
       width="6"
       height="6"
       x="0"
       y="0" />
  </defs>
  <g
     inkscape:label="Layer 1"
     inkscape:groupmode="layer"
     id="layer1">
    <text
       xml:space="preserve"
       style="font-style:normal;font-variant:normal;font-weight:400;font-size:4.9444px;line-height:125%;font-family:Kalpurush;text-align:start;letter-spacing:0px;word-spacing:0px;text-anchor:start;fill:#000000;fill-opacity:1;stroke:none;stroke-width:0.264583"
       x="80.948402"
       y="15.919926"
       id="text2"><tspan
         sodipodi:role="line"
         x="80.948402"
         y="15.919926"
         id="tspan2"
         style="stroke-width:0.264583"><tspan
           dx="0"
           dy="0"
           style="font-style:normal;font-variant:normal;font-weight:400;font-size:4.9444px;font-family:Kalpurush;fill:#000000;stroke-width:0.264583"
           id="tspan1">গণপ্রজাতন্ত্রী বাংলাদেশ সরকার </tspan></tspan></text>
    <text
       xml:space="preserve"
       style="font-style:normal;font-variant:normal;font-weight:400;font-size:4.9444px;line-height:125%;font-family:Kalpurush;text-align:start;letter-spacing:0px;word-spacing:0px;text-anchor:start;fill:#000000;fill-opacity:1;stroke:none;stroke-width:0.264583"
       x="101.01254"
       y="15.919926"
       id="text8"><tspan
         sodipodi:role="line"
         x="101.01254"
         y="15.919926"
         id="tspan8"
         style="stroke-width:0.264583" /></text>
    <text
       xml:space="preserve"
       style="font-style:normal;font-variant:normal;font-weight:400;font-size:4.9444px;line-height:125%;font-family:Kalpurush;text-align:start;letter-spacing:0px;word-spacing:0px;text-anchor:start;fill:#000000;fill-opacity:1;stroke:none;stroke-width:0.264583"
       x="93.393242"
       y="23.708538"
       id="text11"><tspan
         sodipodi:role="line"
         x="93.393242"
         y="23.708538"
         id="tspan11"
         style="stroke-width:0.264583"><tspan
           style="font-style:normal;font-variant:normal;font-weight:400;font-size:4.9444px;font-family:Kalpurush;fill:#000000;stroke-width:0.264583"
           id="tspan9">(</tspan><tspan
           style="font-style:normal;font-variant:normal;font-weight:400;font-size:4.9444px;font-family:Kalpurush;fill:#000000;stroke-width:0.264583"
           id="tspan10">স্থানীয় সরকার) </tspan></tspan></text>
    <text
       xml:space="preserve"
       style="font-style:normal;font-variant:normal;font-weight:400;font-size:4.9444px;line-height:125%;font-family:Kalpurush;text-align:start;letter-spacing:0px;word-spacing:0px;text-anchor:start;fill:#000000;fill-opacity:1;stroke:none;stroke-width:0.264583"
       x="105.20315"
       y="23.708538"
       id="text16"><tspan
         sodipodi:role="line"
         x="105.20315"
         y="23.708538"
         id="tspan16"
         style="stroke-width:0.264583" /></text>
    <text
       xml:space="preserve"
       style="font-style:normal;font-variant:normal;font-weight:700;font-size:9.85573px;line-height:125%;font-family:Kalpurush;text-align:start;letter-spacing:0px;word-spacing:0px;text-anchor:start;fill:#000000;fill-opacity:1;stroke:none;stroke-width:0.264583"
       x="52.249077"
       y="37.296276"
       id="text25"><tspan
         sodipodi:role="line"
         x="52.249077"
         y="37.296276"
         id="tspan25"
         style="stroke-width:0.264583"><tspan
           dx="0"
           dy="0"
           style="font-style:normal;font-variant:normal;font-weight:700;font-size:9.85573px;font-family:Kalpurush;fill:#000000;stroke-width:0.264583"
           id="tspan17">৬নং</tspan><tspan
           dx="0"
           dy="0"
           style="font-style:normal;font-variant:normal;font-weight:700;font-size:9.85573px;font-family:Kalpurush;fill:#000000;stroke-width:0.264583"
           id="tspan18"> </tspan><tspan
           dx="0"
           dy="0"
           style="font-style:normal;font-variant:normal;font-weight:700;font-size:9.85573px;font-family:Kalpurush;fill:#000000;stroke-width:0.264583"
           id="tspan19">মাইজবাগ</tspan><tspan
           dx="0.16588475"
           dy="0"
           style="font-style:normal;font-variant:normal;font-weight:700;font-size:9.85573px;font-family:Kalpurush;fill:#000000;stroke-width:0.264583"
           id="tspan20"> </tspan><tspan
           dx="0"
           dy="0"
           style="font-style:normal;font-variant:normal;font-weight:700;font-size:9.85573px;font-family:Kalpurush;fill:#000000;stroke-width:0.264583"
           id="tspan21">ইউনিয়ন</tspan><tspan
           dx="0"
           dy="0"
           style="font-style:normal;font-variant:normal;font-weight:700;font-size:9.85573px;font-family:Kalpurush;fill:#000000;stroke-width:0.264583"
           id="tspan22"> </tspan><tspan
           dx="0"
           dy="0"
           style="font-style:normal;font-variant:normal;font-weight:700;font-size:9.85573px;font-family:Kalpurush;fill:#000000;stroke-width:0.264583"
           id="tspan23">পরিষদ</tspan><tspan
           dx="0.12374669"
           dy="0"
           style="font-style:normal;font-variant:normal;font-weight:700;font-size:9.85573px;font-family:Kalpurush;fill:#000000;stroke-width:0.264583"
           id="tspan24"> </tspan></tspan></text>
    <text
       xml:space="preserve"
       style="font-style:normal;font-variant:normal;font-weight:400;font-size:4.9444px;line-height:125%;font-family:Kalpurush;text-align:start;letter-spacing:0px;word-spacing:0px;text-anchor:start;fill:#000000;fill-opacity:1;stroke:none;stroke-width:0.264583"
       x="73.710083"
       y="47.032032"
       id="text29"><tspan
         sodipodi:role="line"
         x="73.710083"
         y="47.032032"
         id="tspan29"
         style="stroke-width:0.264583">উপজেলাঃ ঈশ্বরগঞ্জ, জেলাঃ ময়মনসিংহ </tspan></text>
    <text
       xml:space="preserve"
       style="font-style:normal;font-variant:normal;font-weight:400;font-size:4.9444px;line-height:125%;font-family:Kalpurush;text-align:start;letter-spacing:0px;word-spacing:0px;text-anchor:start;fill:#000000;fill-opacity:1;stroke:none;stroke-width:0.264583"
       x="106.60002"
       y="47.032032"
       id="text35"><tspan
         sodipodi:role="line"
         x="106.60002"
         y="47.032032"
         id="tspan35"
         style="stroke-width:0.264583" /></text>
    <text
       xml:space="preserve"
       style="font-style:normal;font-variant:normal;font-weight:400;font-size:4.9444px;line-height:125%;font-family:Kalpurush;text-align:start;letter-spacing:0px;word-spacing:0px;text-anchor:start;fill:#000000;fill-opacity:1;stroke:none;stroke-width:0.264583"
       x="107.19264"
       y="54.820644"
       id="text37"><tspan
         sodipodi:role="line"
         x="107.19264"
         y="54.820644"
         id="tspan37"
         style="stroke-width:0.264583"><tspan
           dx="0"
           dy="0"
           style="font-style:normal;font-variant:normal;font-weight:400;font-size:4.9444px;font-family:Kalpurush;fill:#000000;stroke-width:0.264583"
           id="tspan36"> </tspan></tspan></text>
    <text
       xml:space="preserve"
       style="font-style:normal;font-variant:normal;font-weight:400;font-size:5.6224px;line-height:160.362%;font-family:'Noto Serif Bengali';text-align:start;letter-spacing:0px;word-spacing:0px;text-anchor:start;fill:#000000;fill-opacity:1;stroke:none;stroke-width:0.264583"
       x="27.126665"
       y="50.780411"
       id="text41"><tspan
         sodipodi:role="line"
         x="27.126665"
         y="50.780411"
         id="tspan39"
         style="stroke-width:0.264583"><tspan
           dx="0"
           dy="0"
           style="font-style:normal;font-variant:normal;font-weight:400;font-size:5.6224px;font-family:'Noto Serif Bengali';fill:#000000;stroke-width:0.264583"
           id="tspan38"> </tspan></tspan><tspan
         sodipodi:role="line"
         x="27.126665"
         y="59.7966"
         id="tspan41"
         style="stroke-width:0.264583"><tspan
           dx="0"
           dy="0"
           style="font-style:normal;font-variant:normal;font-weight:400;font-size:5.6224px;font-family:'Noto Serif Bengali';fill:#000000;stroke-width:0.264583"
           id="tspan40"> </tspan></tspan></text>
    <path
       d="m 74.687035,79.408914 q -0.394229,0 -0.749036,-0.187259 -0.354806,-0.187259 -0.581488,-0.512498 -0.216826,-0.335095 -0.216826,-0.73918 v -3.92258 h -0.699757 l -0.433652,-0.709613 h 5.548776 l 0.404085,0.709613 h -3.942292 v 3.92258 q 0,0.216826 0.13798,0.335095 0.137981,0.118269 0.364662,0.118269 0.226682,0 0.46322,-0.177403 0.236537,-0.177404 0.453363,-0.492787 0.216826,-0.315383 0.354807,-0.73918 0.147836,-0.433652 0.177403,-0.94615 l 0.443508,0.433652 q -0.611056,-0.04928 -1.093986,-0.27596 -0.482931,-0.226682 -0.827882,-0.591344 -0.34495,-0.374518 -0.542065,-0.837737 l 0.0099,-0.788458 q 0.295672,0.492786 0.719468,0.788458 0.423796,0.285816 0.887016,0.423796 0.473075,0.128125 0.887016,0.157692 0.13798,0.06899 0.315383,0.216826 0.177403,0.147836 0.305528,0.364662 0.13798,0.216826 0.13798,0.502642 0,0.32524 -0.108413,0.719469 -0.108413,0.394229 -0.325239,0.788458 -0.206971,0.384374 -0.512498,0.719468 -0.305528,0.32524 -0.709613,0.522354 -0.394229,0.197115 -0.867304,0.197115 z m 4.523784,0.404085 -0.80817,-0.354807 v -4.474501 q -0.05913,-0.374518 -0.216826,-0.650478 -0.157692,-0.285816 -0.453364,-0.285816 h -0.04928 L 77.26924,73.337784 h 0.354806 q 0.256249,0 0.443508,0.13798 0.187259,0.128125 0.315384,0.404085 0.128124,0.275961 0.197114,0.699757 l -0.09856,0.02957 q -0.03942,-0.34495 -0.05913,-0.699757 -0.01971,-0.364662 -0.01971,-0.512498 V 72.47048 l 0.06899,-0.02957 0.67019,0.354806 0.06899,0.542065 h 0.788458 l 0.413941,0.709613 h -1.133409 v 5.74589 z m 2.454082,0 -0.80817,-0.354807 v -5.410795 h -0.719468 l -0.413941,-0.709613 h 1.103842 q -0.216826,-0.20697 -0.46322,-0.443508 -0.236537,-0.246393 -0.453363,-0.492786 0.27596,-0.6012 0.749035,-1.054563 0.482931,-0.46322 1.093986,-0.719469 0.611056,-0.256249 1.27139,-0.256249 0.55192,0 1.08413,0.187259 0.532209,0.177403 1.01514,0.492787 0.492787,0.305527 0.916583,0.689901 0.433652,0.374517 0.768747,0.758891 l -0.394229,0.354806 Q 85.84373,72.3325 85.321377,72.00726 q -0.522354,-0.325239 -1.01514,-0.473075 -0.492787,-0.157691 -0.975718,-0.157691 -0.482931,0 -0.916583,0.187259 -0.433652,0.187258 -0.758891,0.48293 -0.315383,0.285817 -0.463219,0.620911 0.06899,0.108413 0.13798,0.226682 0.06899,0.108413 0.13798,0.226682 0.07885,0.108413 0.157692,0.216826 h 0.827881 l 0.423797,0.709613 h -1.143265 v 5.74589 z m 5.361523,-0.108413 -0.680046,-0.423797 Q 85.991572,78.738724 85.508641,78.364206 85.035566,77.989689 84.454078,77.763007 83.87259,77.536325 83.182689,77.457479 l -0.542065,-1.448792 q 0.561776,-0.364662 1.15312,-0.67019 0.591344,-0.305527 1.222111,-0.551921 0.640622,-0.246393 1.310812,-0.423796 l -0.09856,0.463219 v -0.778602 h -3.636765 l -0.41394,-0.709613 h 5.647333 l 0.423796,0.709613 h -1.133409 v 5.637477 z M 86.22811,78.669734 V 75.30893 l 0.167547,0.344951 q -0.384373,0.118268 -0.80817,0.295671 -0.423796,0.167548 -0.827881,0.384374 -0.404085,0.20697 -0.758891,0.433652 l -0.07885,-0.226682 q 0.433652,0.108413 0.887015,0.344951 0.453364,0.236537 0.857449,0.620911 0.404085,0.384373 0.699757,0.956006 z m -1.527639,1.113697 q -0.305527,0 -0.532209,-0.20697 -0.216826,-0.197114 -0.216826,-0.522354 0,-0.335094 0.216826,-0.532209 0.226682,-0.20697 0.532209,-0.20697 0.305528,0 0.522354,0.20697 0.216826,0.197115 0.216826,0.532209 0,0.335095 -0.226682,0.53221 -0.216826,0.197114 -0.512498,0.197114 z m 4.799737,0.02957 -0.80817,-0.354807 V 74.047397 H 87.97257 l -0.413941,-0.709613 h 1.103842 q -0.216826,-0.20697 -0.463219,-0.443508 -0.236538,-0.246393 -0.453364,-0.492786 0.27596,-0.6012 0.749036,-1.054563 0.48293,-0.46322 1.093986,-0.719469 0.611055,-0.256249 1.271389,-0.256249 0.551921,0 1.08413,0.187259 0.532209,0.177403 1.01514,0.492787 0.492787,0.305527 0.916583,0.689901 0.433652,0.374517 0.768747,0.758891 L 94.25067,72.854853 Q 93.679038,72.3325 93.156684,72.00726 q -0.522354,-0.325239 -1.01514,-0.473075 -0.492787,-0.157691 -0.975718,-0.157691 -0.48293,0 -0.916583,0.187259 -0.433652,0.187258 -0.758891,0.48293 -0.315383,0.285817 -0.463219,0.620911 0.06899,0.108413 0.13798,0.226682 0.06899,0.108413 0.13798,0.226682 0.07885,0.108413 0.157692,0.216826 h 0.827881 l 0.423797,0.709613 h -1.143265 v 5.74589 z m 6.672335,0.542065 -0.591344,-0.344951 q -0.246393,-0.335095 -0.512498,-0.443508 -0.256249,-0.108413 -0.561776,-0.108413 -0.315384,0 -0.620911,0.03942 -0.295672,0.04928 -0.611056,0.0887 -0.305527,0.04928 -0.670189,0.04928 -0.522354,0 -0.975718,-0.197115 -0.453363,-0.20697 -0.729324,-0.660334 -0.266104,-0.453364 -0.266104,-1.202399 0,-0.315383 0.04928,-0.660334 0.04928,-0.354806 0.137981,-0.660334 l 0.532209,0.0887 q -0.06899,0.236537 -0.0887,0.433652 -0.01971,0.197114 -0.01971,0.374518 0,0.591343 0.364662,0.896871 0.364662,0.305528 0.936294,0.305528 0.335095,0 0.561777,-0.01971 0.236537,-0.01971 0.443508,-0.03942 0.216826,-0.02957 0.492786,-0.02957 0.275961,0 0.512498,0.07885 0.246393,0.06899 0.473075,0.27596 0.226682,0.206971 0.443508,0.591344 -0.02957,-0.177403 -0.04928,-0.404085 -0.01971,-0.236537 -0.03942,-0.473075 -0.0099,-0.246393 -0.0099,-0.463219 v -2.138694 q 0,-0.295671 -0.09856,-0.433652 -0.0887,-0.13798 -0.315383,-0.13798 -0.187259,0 -0.384373,0.128125 -0.197115,0.118268 -0.364662,0.315383 -0.167548,0.187259 -0.275961,0.423796 -0.09856,0.226682 -0.0887,0.453364 l -0.620911,-0.07885 q 0.0887,-0.128124 0.246393,-0.197115 0.157692,-0.07884 0.315383,-0.07884 0.364662,0 0.571633,0.226681 0.20697,0.226682 0.20697,0.571633 0,0.374517 -0.275961,0.650478 -0.266104,0.27596 -0.758891,0.266105 -0.502642,-0.0099 -0.827881,-0.315384 -0.315383,-0.315383 -0.315383,-0.887015 0,-0.443508 0.197114,-0.837737 0.206971,-0.404085 0.551921,-0.709613 0.344951,-0.315383 0.778603,-0.492787 0.443508,-0.177403 0.916583,-0.177403 0.699756,0 1.054563,0.364662 0.364662,0.364662 0.364662,0.965862 v 4.573059 z m -5.745891,-6.307667 -0.41394,-0.709613 h 6.711752 l 0.41394,0.709613 z m 10.870868,5.657189 -0.68005,-0.423797 q -0.3548,-0.542065 -0.837732,-0.916583 -0.473076,-0.374517 -1.054564,-0.601199 -0.581488,-0.226682 -1.271389,-0.305528 L 96.91172,76.008687 q 0.561777,-0.364662 1.15312,-0.67019 0.591344,-0.305527 1.222111,-0.551921 0.640622,-0.246393 1.310809,-0.423796 l -0.0985,0.482931 v -0.798314 h -3.636769 l -0.41394,-0.709613 h 7.608619 l 0.40409,0.709613 h -3.07499 v 0.581488 l -0.14783,-0.246394 q 0.80817,0.05913 1.38965,0.404085 0.59135,0.335095 0.90673,0.867305 0.32524,0.522353 0.32524,1.162976 0,0.680045 -0.30553,1.064419 -0.29567,0.374517 -0.81802,0.374517 -0.43366,0 -0.66034,-0.246393 -0.21682,-0.256249 -0.21682,-0.620911 0,-0.34495 0.21682,-0.561777 0.21683,-0.216826 0.56178,-0.216826 0.31538,0 0.5125,0.167548 0.19711,0.167547 0.23653,0.502642 l -0.1774,0.0099 q 0.069,-0.09856 0.0887,-0.177403 0.0296,-0.0887 0.0296,-0.197115 0,-0.256249 -0.13798,-0.482931 -0.13798,-0.226682 -0.39423,-0.404085 -0.25625,-0.177403 -0.61105,-0.27596 -0.35481,-0.108413 -0.77861,-0.108413 -0.0986,0 -0.18726,0.02957 l 0.16755,-0.246393 v 4.257675 z m -0.79831,-1.034852 V 75.30893 l 0.16754,0.344951 q -0.38437,0.118268 -0.808167,0.295671 -0.423796,0.167548 -0.827881,0.384374 -0.404085,0.20697 -0.758891,0.433652 l -0.07885,-0.226682 q 0.433652,0.108413 0.887016,0.344951 0.453363,0.236537 0.857448,0.620911 0.404081,0.384373 0.699761,0.956006 z m 14.33024,1.143265 -0.79831,-0.354807 v -2.730037 l 0.0591,0.473075 q -0.11827,-0.27596 -0.21682,-0.453363 -0.0986,-0.177404 -0.19712,-0.266105 -0.0887,-0.0887 -0.21682,-0.0887 -0.11827,0 -0.22669,0.0887 -0.0986,0.07885 -0.23653,0.285816 -0.12813,0.20697 -0.3351,0.591344 -0.20697,0.394229 -0.41394,0.660334 -0.19711,0.266104 -0.42379,0.404085 -0.21683,0.128124 -0.5125,0.128124 -0.36466,0 -0.67019,-0.226682 -0.29567,-0.226681 -0.55192,-0.620911 -0.2464,-0.394229 -0.46322,-0.896871 l 0.48293,-0.256249 q 0.15769,0.27596 0.28581,0.423796 0.12813,0.147836 0.25625,0.206971 0.12813,0.04928 0.27596,0.04928 0.21683,0 0.38438,-0.157691 0.1774,-0.157692 0.34495,-0.453364 0.16755,-0.295672 0.3548,-0.699757 0.18726,-0.374517 0.35481,-0.561776 0.16755,-0.187259 0.32524,-0.246394 0.15769,-0.06899 0.30553,-0.06899 0.25625,0 0.46322,0.167548 0.20697,0.157691 0.39423,0.502642 0.19711,0.335095 0.42379,0.887016 l -0.15769,0.0099 q -0.0296,-0.285816 -0.0493,-0.561776 -0.01,-0.285816 -0.0197,-0.571633 -0.01,-0.285816 -0.01,-0.55192 v -0.87716 h -3.67618 l -0.16755,-0.246394 q 0.58149,0.0887 0.97572,0.256249 0.40408,0.157692 0.65048,0.433652 0.24639,0.266105 0.36466,0.650479 0.11827,0.384373 0.13798,0.916582 l -0.3351,0.53221 q -0.0197,-0.473075 -0.14783,-0.778603 -0.12813,-0.315383 -0.34495,-0.502642 -0.20697,-0.187259 -0.48293,-0.266105 -0.26611,-0.07885 -0.57164,-0.07885 -0.16754,0 -0.30552,0.01971 -0.13798,0.0099 -0.23654,0.02957 l -1.025,-1.675474 h 6.74132 l 0.4238,0.709613 h -1.13341 v 5.74589 z m 5.57834,-0.0887 -0.62091,-0.453364 q -0.0394,-0.325239 -0.12812,-0.689901 -0.0887,-0.364662 -0.23654,-0.719468 -0.13798,-0.354806 -0.33509,-0.640622 -0.18726,-0.295672 -0.43366,-0.46322 -0.24639,-0.177403 -0.55192,-0.177403 -0.11827,0 -0.24639,0.02957 -0.12813,0.02957 -0.20697,0.07885 l 0.30553,-0.640622 q 0.16754,0.108413 0.23653,0.285816 0.0788,0.177403 0.0788,0.374518 0,0.285816 -0.11827,0.522353 -0.11827,0.236538 -0.36466,0.384374 -0.23654,0.13798 -0.59134,0.13798 -0.58149,0 -0.91659,-0.354806 -0.32524,-0.364662 -0.32524,-0.906727 0,-0.620911 0.38438,-0.956006 0.39423,-0.335095 0.99543,-0.335095 0.4435,0 0.80817,0.157692 0.36466,0.147836 0.66033,0.41394 0.29567,0.266105 0.5125,0.611056 0.21682,0.34495 0.3548,0.719468 0.14784,0.374518 0.21683,0.749035 l -0.16755,0.0887 q -0.0197,-0.20697 -0.0493,-0.561777 -0.0197,-0.354806 -0.0394,-0.749035 -0.0197,-0.394229 -0.0197,-0.699757 v -1.882444 h -3.84374 l -0.41394,-0.709613 h 5.86416 l 0.40409,0.709613 h -1.13341 v 5.657189 z m 5.0757,0.344951 q -0.25625,-0.542066 -0.45336,-1.182688 -0.18726,-0.640622 -0.18726,-1.340379 0,-0.335095 0.0394,-0.67019 0.0493,-0.335095 0.12813,-0.67019 0.0887,-0.34495 0.21682,-0.670189 l 0.37452,0.246393 q -0.49278,0.315383 -0.96586,0.699757 -0.47307,0.374518 -0.93629,0.798314 -0.45337,0.423796 -0.90673,0.896871 l -0.8673,-0.640622 v -3.488928 h -0.58149 l -0.41394,-0.709613 h 5.71632 l 0.40408,0.709613 h -4.23796 v 2.937007 l -0.24639,-0.384373 q 0.23654,-0.266105 0.54206,-0.53221 0.30553,-0.27596 0.65048,-0.542065 0.35481,-0.266105 0.71947,-0.502642 0.37452,-0.246393 0.74903,-0.443508 l 1.14327,0.965862 q -0.3351,0.55192 -0.5125,1.192543 -0.1774,0.640622 -0.1774,1.251678 0,0.305527 0.0296,0.601199 0.0296,0.285816 0.0986,0.6012 0.0789,0.305527 0.18726,0.670189 z m 7.27354,-0.256249 -0.80817,-0.354807 v -3.607197 l 0.0493,0.758891 q -0.25625,-0.551921 -0.55193,-0.975717 -0.28581,-0.433652 -0.59134,-0.719468 -0.30553,-0.295672 -0.62091,-0.443508 -0.30553,-0.157692 -0.61106,-0.157692 -0.28581,0 -0.55192,0.157692 -0.25625,0.147836 -0.47307,0.423796 -0.20697,0.275961 -0.36466,0.660334 l -0.36467,-0.197114 q 0.13798,-0.108413 0.32524,-0.187259 0.19712,-0.07885 0.41394,-0.07885 0.3351,0 0.54207,0.216826 0.21683,0.20697 0.21683,0.581488 0,0.197115 -0.0591,0.364662 -0.0493,0.167548 -0.12812,0.344951 l -0.0986,-0.187259 1.7149,-1.764176 0.79831,0.94615 -2.52307,2.56249 -0.89687,-0.936294 q 0.25625,-0.187259 0.4238,-0.413941 0.1774,-0.236538 0.1774,-0.512498 0,-0.147836 -0.0591,-0.236538 -0.0493,-0.0887 -0.14784,-0.128124 -0.0887,-0.04928 -0.21682,-0.04928 -0.1577,0 -0.31539,0.06899 -0.15769,0.05913 -0.31538,0.197115 l -1.00529,-0.87716 q 0.3351,-0.620911 0.74904,-1.064419 0.4238,-0.453363 0.89687,-0.699757 0.48293,-0.246393 0.99543,-0.246393 0.54206,0 1.03485,0.246393 0.49279,0.236538 0.90673,0.73918 0.42379,0.502642 0.75889,1.271389 l -0.0296,0.04928 q -0.0296,-0.512498 -0.0591,-0.906727 -0.0197,-0.404085 -0.0197,-0.788459 V 72.47048 l 0.069,-0.02957 0.67019,0.354806 0.069,0.542065 h 0.7786 l 0.4238,0.709613 h -1.13341 v 5.74589 z m 6.67233,0.542065 -0.59134,-0.344951 q -0.2464,-0.335095 -0.5125,-0.443508 -0.25625,-0.108413 -0.56178,-0.108413 -0.31538,0 -0.62091,0.03942 -0.29567,0.04928 -0.61105,0.0887 -0.30553,0.04928 -0.67019,0.04928 -0.52236,0 -0.97572,-0.197115 -0.45337,-0.20697 -0.72933,-0.660334 -0.2661,-0.453364 -0.2661,-1.202399 0,-0.315383 0.0493,-0.660334 0.0493,-0.354806 0.13798,-0.660334 l 0.53221,0.0887 q -0.069,0.236537 -0.0887,0.433652 -0.0197,0.197114 -0.0197,0.374518 0,0.591343 0.36467,0.896871 0.36466,0.305528 0.93629,0.305528 0.3351,0 0.56178,-0.01971 0.23654,-0.01971 0.44351,-0.03942 0.21682,-0.02957 0.49278,-0.02957 0.27596,0 0.5125,0.07885 0.24639,0.06899 0.47308,0.27596 0.22668,0.206971 0.4435,0.591344 -0.0296,-0.177403 -0.0493,-0.404085 -0.0197,-0.236537 -0.0394,-0.473075 -0.01,-0.246393 -0.01,-0.463219 v -2.138694 q 0,-0.295671 -0.0986,-0.433652 -0.0887,-0.13798 -0.31538,-0.13798 -0.18726,0 -0.38438,0.128125 -0.19711,0.118268 -0.36466,0.315383 -0.16755,0.187259 -0.27596,0.423796 -0.0986,0.226682 -0.0887,0.453364 l -0.62091,-0.07885 q 0.0887,-0.128124 0.24639,-0.197115 0.15769,-0.07884 0.31538,-0.07884 0.36467,0 0.57164,0.226681 0.20697,0.226682 0.20697,0.571633 0,0.374517 -0.27596,0.650478 -0.26611,0.27596 -0.7589,0.266105 -0.50264,-0.0099 -0.82788,-0.315384 -0.31538,-0.315383 -0.31538,-0.887015 0,-0.443508 0.19711,-0.837737 0.20697,-0.404085 0.55192,-0.709613 0.34496,-0.315383 0.77861,-0.492787 0.44351,-0.177403 0.91658,-0.177403 0.69976,0 1.05456,0.364662 0.36467,0.364662 0.36467,0.965862 v 4.573059 z m -5.74589,-6.307667 -0.41394,-0.709613 h 6.71175 l 0.41394,0.709613 z"
       id="text43"
       style="font-weight:700;font-size:9.85573px;line-height:125%;font-family:'Noto Serif Bengali';letter-spacing:0px;word-spacing:0px;stroke-width:0.264583"
       aria-label="চারিত্রিক  সনদপত্র" />
    <text
       xml:space="preserve"
       style="font-style:normal;font-variant:normal;font-weight:700;font-size:9.85573px;line-height:125%;font-family:'Noto Serif Bengali';text-align:start;letter-spacing:0px;word-spacing:0px;text-anchor:start;fill:#000000;fill-opacity:1;stroke:none;stroke-width:0.264583"
       x="106.20824"
       y="79.468048"
       id="text48"><tspan
         sodipodi:role="line"
         x="106.20824"
         y="79.468048"
         id="tspan48"
         style="stroke-width:0.264583" /></text>
    <text
       xml:space="preserve"
       style="font-style:normal;font-variant:normal;font-weight:700;font-size:9.85573px;line-height:125%;font-family:'Noto Serif Bengali';text-align:start;letter-spacing:0px;word-spacing:0px;text-anchor:start;fill:#000000;fill-opacity:1;stroke:none;stroke-width:0.264583"
       x="142.23059"
       y="79.468048"
       id="text50"><tspan
         sodipodi:role="line"
         x="142.23059"
         y="79.468048"
         id="tspan50"
         style="stroke-width:0.264583"><tspan
           dx="0"
           dy="0"
           style="font-style:normal;font-variant:normal;font-weight:700;font-size:9.85573px;font-family:'Noto Serif Bengali';fill:#000000;stroke-width:0.264583"
           id="tspan49"> </tspan></tspan></text>
    <path
       style="fill:#ffffff;fill-opacity:1;fill-rule:evenodd;stroke:none;stroke-width:0.264583"
       d="m 118.63194,202.49844 v 34.28682 h 69.37789 v -34.28682 z"
       id="path256" />
    <g
       clip-path="url(#clipEmfPath1)"
       id="g284"
       transform="matrix(0.26458333,0,0,0.26458333,13.168236,4.8836465)">
      <text
         xml:space="preserve"
         style="font-style:normal;font-variant:normal;font-weight:700;font-size:18.6875px;line-height:159.236%;font-family:'Noto Serif Bengali';text-align:center;letter-spacing:0px;word-spacing:0px;text-anchor:middle;fill:#000000;fill-opacity:1;stroke:none"
         transform="translate(474.83587,772.56821)"
         x="57.374924"
         y="0"
         id="text265"><tspan
           sodipodi:role="line"
           x="57.374928"
           y="0"
           id="tspan263">{{chairman}}</tspan><tspan
           sodipodi:role="line"
           x="57.374924"
           y="29.757225"
           id="tspan265"><tspan
             dx="0"
             dy="0"
             style="font-style:normal;font-variant:normal;font-weight:400;font-size:18.6875px;font-family:'Noto Serif Bengali';fill:#000000"
             id="tspan264">চেয়ারম্যান</tspan></tspan></text>
      <text
         xml:space="preserve"
         style="font-style:normal;font-variant:normal;font-weight:400;font-size:18.6875px;line-height:125%;font-family:'Noto Serif Bengali';text-align:start;letter-spacing:0px;word-spacing:0px;text-anchor:start;fill:#000000;fill-opacity:1;stroke:none"
         transform="translate(474.83587,772.56821)"
         x="88.951736"
         y="29.757235"
         id="text267"><tspan
           sodipodi:role="line"
           x="88.951736"
           y="29.757235"
           id="tspan267"><tspan
             dx="0"
             dy="0"
             style="font-style:normal;font-variant:normal;font-weight:400;font-size:18.6875px;font-family:'Noto Serif Bengali';fill:#000000"
             id="tspan266"> </tspan></tspan></text>
      <text
         xml:space="preserve"
         style="font-style:normal;font-variant:normal;font-weight:400;font-size:18.6875px;line-height:125%;font-family:'Noto Serif Bengali';text-align:center;letter-spacing:0px;word-spacing:0px;text-anchor:middle;fill:#000000;fill-opacity:1;stroke:none"
         transform="translate(474.83587,772.56821)"
         x="54.779701"
         y="59.514469"
         id="text278"><tspan
           sodipodi:role="line"
           x="-49.59539"
           y="59.514469"
           id="tspan278"><tspan
             style="font-style:normal;font-variant:normal;font-weight:400;font-size:18.6875px;font-family:'Noto Serif Bengali';text-align:center;text-anchor:middle;fill:#000000"
             id="tspan268"
             dy="0"
             dx="0">৬</tspan><tspan
             style="font-style:normal;font-variant:normal;font-weight:400;font-size:18.6875px;font-family:'Noto Serif Bengali';text-align:center;text-anchor:middle;fill:#000000"
             id="tspan269"
             dy="0"
             dx="0"> </tspan><tspan
             style="font-style:normal;font-variant:normal;font-weight:400;font-size:18.6875px;font-family:'Noto Serif Bengali';text-align:center;text-anchor:middle;fill:#000000"
             id="tspan270"
             dy="0"
             dx="0">নং</tspan><tspan
             style="font-style:normal;font-variant:normal;font-weight:400;font-size:18.6875px;font-family:'Noto Serif Bengali';text-align:center;text-anchor:middle;fill:#000000"
             id="tspan271"
             dy="0"
             dx="0"> </tspan><tspan
             style="font-style:normal;font-variant:normal;font-weight:400;font-size:18.6875px;font-family:'Noto Serif Bengali';text-align:center;text-anchor:middle;fill:#000000"
             id="tspan272"
             dy="0"
             dx="0">মাইজবাগ</tspan><tspan
             style="font-style:normal;font-variant:normal;font-weight:400;font-size:18.6875px;font-family:'Noto Serif Bengali';text-align:center;text-anchor:middle;fill:#000000"
             id="tspan273"
             dy="0"
             dx="-0.568551"> </tspan><tspan
             style="font-style:normal;font-variant:normal;font-weight:400;font-size:18.6875px;font-family:'Noto Serif Bengali';text-align:center;text-anchor:middle;fill:#000000"
             id="tspan274"
             dy="0"
             dx="0">ইউনিয়ন</tspan><tspan
             style="font-style:normal;font-variant:normal;font-weight:400;font-size:18.6875px;font-family:'Noto Serif Bengali';text-align:center;text-anchor:middle;fill:#000000"
             id="tspan275"
             dy="0"
             dx="0"> </tspan><tspan
             style="font-style:normal;font-variant:normal;font-weight:400;font-size:18.6875px;font-family:'Noto Serif Bengali';text-align:center;text-anchor:middle;fill:#000000"
             id="tspan276"
             dy="0"
             dx="0">পরিষদ</tspan><tspan
             style="font-style:normal;font-variant:normal;font-weight:400;font-size:18.6875px;font-family:'Noto Serif Bengali';text-align:center;text-anchor:middle;fill:#000000"
             id="tspan277"
             dy="0"
             dx="0"> </tspan></tspan></text>
      <text
         xml:space="preserve"
         style="font-style:normal;font-variant:normal;font-weight:400;font-size:18.6875px;line-height:125%;font-family:'Noto Serif Bengali';text-align:start;letter-spacing:0px;word-spacing:0px;text-anchor:start;fill:#000000;fill-opacity:1;stroke:none"
         transform="translate(474.83587,772.56821)"
         x="57.919479"
         y="89.271706"
         id="text280"><tspan
           sodipodi:role="line"
           x="60.330158"
           y="89.271706"
           id="tspan280"
           style="text-align:center;text-anchor:middle"><tspan
             dx="0"
             dy="0"
             style="font-style:normal;font-variant:normal;font-weight:400;font-size:18.6875px;font-family:'Noto Serif Bengali';text-align:center;text-anchor:middle;fill:#000000"
             id="tspan279">ঈশ্বরগঞ্জ, ময়মনসিংহ </tspan></tspan></text>
      <text
         xml:space="preserve"
         style="font-style:normal;font-variant:normal;font-weight:400;font-size:18.6875px;line-height:125%;font-family:'Noto Serif Bengali';text-align:start;letter-spacing:0px;word-spacing:0px;text-anchor:start;fill:#000000;fill-opacity:1;stroke:none"
         transform="translate(474.83587,772.56821)"
         x="41.43615"
         y="89.271706"
         id="text284"><tspan
           sodipodi:role="line"
           x="41.43615"
           y="89.271706"
           id="tspan284" /></text>
    </g>
    <path
       style="fill:none;stroke:#000000;stroke-width:0.529117px;stroke-linecap:butt;stroke-linejoin:miter;stroke-miterlimit:8;stroke-dasharray:none;stroke-opacity:1"
       d="M 14.406594,53.127469 H 197.36484"
       id="path284" />
    <text
       xml:space="preserve"
       transform="scale(0.26458333)"
       id="text1"
       style="font-size:21.3333px;font-family:'Li Subha Letterpress Unicode';-inkscape-font-specification:'Li Subha Letterpress Unicode';text-align:center;writing-mode:lr-tb;direction:ltr;white-space:pre;shape-inside:url(#rect1);fill:#000000;stroke-width:1.88976"
       x="0"
       y="0"><tspan
         x="61.132812"
         y="368.10054"
         id="tspan12"><tspan
           dx="0 0.89215326 0.89215326 0.89215422 0.89215231 0.89215422 0 0 0.8921504 0 0 0 0 0 0.8921504 0 0 0 0 0 0 0 0 0.89215803 0 0 0 0.89214277 0 0 0 0 0 0 0 0.89214277 0 0 0 0.89214277"
           style="font-family:Kalpurush;-inkscape-font-specification:Kalpurush;text-align:justify;text-anchor:start"
           id="tspan3">     এই মর্মে প্রত্যয়ন করা যাইতেছে যে, {{</tspan><tspan
           style="font-family:Kalpurush;-inkscape-font-specification:Kalpurush;text-align:justify;text-anchor:start"
           id="tspan4">name</tspan><tspan
           dx="0 0 0 0 0.89217329 0 0 0 0 0 0.89214277"
           style="font-family:Kalpurush;-inkscape-font-specification:Kalpurush;text-align:justify;text-anchor:start"
           id="tspan5">}}, পিতা: {{</tspan><tspan
           dx="0 0 0 0 0 0 0 0 0.89214277"
           style="font-family:Kalpurush;-inkscape-font-specification:Kalpurush;text-align:justify;text-anchor:start"
           id="tspan6">fathers name</tspan><tspan
           dx="0 0 0 0 0.89214277"
           style="font-family:Kalpurush;-inkscape-font-specification:Kalpurush;text-align:justify;text-anchor:start"
           id="tspan7">}}, মাতাঃ </tspan></tspan><tspan
         x="61.132812"
         y="396.37117"
         id="tspan33"><tspan
           style="font-family:Kalpurush;-inkscape-font-specification:Kalpurush;text-align:justify;text-anchor:start"
           id="tspan13">{{</tspan><tspan
           dx="0 0 0 0 0 0 0 0 0.68345785"
           style="font-family:Kalpurush;-inkscape-font-specification:Kalpurush;text-align:justify;text-anchor:start"
           id="tspan14">mothers name</tspan><tspan
           dx="0 0 0 0 0.68344831 0 0 0 0 0 0 0.68346357"
           style="font-family:Kalpurush;-inkscape-font-specification:Kalpurush;text-align:justify;text-anchor:start"
           id="tspan15">}}, গ্রাম: {{</tspan><tspan
           style="font-family:Kalpurush;-inkscape-font-specification:Kalpurush;text-align:justify;text-anchor:start"
           id="tspan26">village</tspan><tspan
           dx="0 0 0 0 0.68346357 0 0 0 0 0 0 0.68346357"
           style="font-family:Kalpurush;-inkscape-font-specification:Kalpurush;text-align:justify;text-anchor:start"
           id="tspan27">}}, ডাকঘর: {{</tspan><tspan
           style="font-family:Kalpurush;-inkscape-font-specification:Kalpurush;text-align:justify;text-anchor:start"
           id="tspan28">post</tspan><tspan
           dx="0 0 0 0.68346357 0 0.68346357"
           style="font-family:Kalpurush;-inkscape-font-specification:Kalpurush;text-align:justify;text-anchor:start"
           id="tspan30">}} – {{</tspan><tspan
           style="font-family:Kalpurush;-inkscape-font-specification:Kalpurush;text-align:justify;text-anchor:start"
           id="tspan31">postCode</tspan><tspan
           dx="0 0 0 0 0.68346357"
           style="font-family:Kalpurush;-inkscape-font-specification:Kalpurush;text-align:justify;text-anchor:start"
           id="tspan32">}}, উপজেলা: </tspan></tspan><tspan
         x="61.132812"
         y="424.6418"
         id="tspan46"><tspan
           dx="0 0 0 0 0 0 0 0 0 0 0 0.48348951 0 0 0 0 0 0.48348951 0 0 0 0 0 0 0 0 0 0.48348188 0 0 0 0 0 0.48348188 0 0 0 0 0.48348188 0 0 0 0 0 0.48348188"
           style="font-family:Kalpurush;-inkscape-font-specification:Kalpurush;text-align:justify;text-anchor:start"
           id="tspan34">ঈশ্বরগঞ্জ, জেলা: ময়মনসিংহ। তাহার জন্ম তারিখ {{</tspan><tspan
           style="font-family:Kalpurush;-inkscape-font-specification:Kalpurush;text-align:justify;text-anchor:start"
           id="tspan42">dob</tspan><tspan
           dx="0 0 0 0.48348188 0 0 0 0.4835124 0 0 0 0 0.4835124 0 0 0 0 0 0 0 0.4835124 0 0 0.48348188"
           style="font-family:Kalpurush;-inkscape-font-specification:Kalpurush;text-align:justify;text-anchor:start"
           id="tspan43">}} এবং জন্ম নিবন্ধন নং {{</tspan><tspan
           style="font-family:Kalpurush;-inkscape-font-specification:Kalpurush;text-align:justify;text-anchor:start"
           id="tspan44">nid</tspan><tspan
           style="font-family:Kalpurush;-inkscape-font-specification:Kalpurush;text-align:justify;text-anchor:start"
           id="tspan45">}}। </tspan></tspan><tspan
         x="61.132812"
         y="452.91243"
         id="tspan54"><tspan
           dx="0 0 0 0 0 7.8961024"
           style="font-family:Kalpurush;-inkscape-font-specification:Kalpurush;text-align:justify;text-anchor:start"
           id="tspan47">তিনি {{</tspan><tspan
           dx="0 0 0 0 0 7.8961024"
           style="font-family:Kalpurush;-inkscape-font-specification:Kalpurush;text-align:justify;text-anchor:start"
           id="tspan52">unio name</tspan><tspan
           dx="0 0 0 7.8960948 0 0 0 0 0 0 0 0 7.8961101 0 0 7.8961253 0 0 7.8960795 0 0 0 0 0 0 0 0 7.8960948 0 0 0 0 0 0 7.8960948 0 0 0 0 0 0 0 0 7.8960643 0 0 0 7.8961253"
           style="font-family:Kalpurush;-inkscape-font-specification:Kalpurush;text-align:justify;text-anchor:start"
           id="tspan53">}} ইউনিয়নের ০৪ নং ওয়ার্ডের স্থায়ী বাসিন্দা এবং জন্মসূত্রে </tspan></tspan><tspan
         x="61.132812"
         y="481.18306"
         id="tspan56"><tspan
           dx="0 0 0 0 0 0 0 0 0 0 3.0278316 0 0 0 0 0 0 0 3.0278239 0 0 0 3.0278239 0 0 0 0 0 0 3.0278239 0 0 0 0 0 0 0 0 0 0 0 0 0 3.0278239 0 0 0 0 3.0278239 0 3.0278239 0 0 0 0 0 3.0278239 0 0 0 0 3.0278239 0 0 0 0 0 0 0 3.0278239"
           style="font-family:Kalpurush;-inkscape-font-specification:Kalpurush;text-align:justify;text-anchor:start"
           id="tspan55">বাংলাদেশী নাগরিক। আমি তাহাকে ব্যক্তিগতভাবে চিনি ও জানি; আমার জানামতে তিনি </tspan></tspan><tspan
         x="61.132812"
         y="509.45369"
         id="tspan58"><tspan
           dx="0 0 -0.34134912 0 6.9546618 0 0 0 0 0 0 0 0 0 0 0 0 0 0 0 0 -6.9546618 0 6.9546599"
           style="font-family:Kalpurush;-inkscape-font-specification:Kalpurush;text-align:justify;text-anchor:start"
           id="tspan57">কোনো প্রকার রাষ্ট্রবিরোধী কর্মকাণ্ডের সাথে জড়িত নন এবং সচ্চরিত্রের অধিকারী।
</tspan></tspan><tspan
         x="61.132812"
         y="537.72432"
         id="tspan60"><tspan
           style="font-family:Kalpurush;-inkscape-font-specification:Kalpurush;text-align:justify;text-anchor:start"
           id="tspan59">
</tspan></tspan><tspan
         x="61.132812"
         y="565.99495"
         id="tspan63"><tspan
           style="font-family:Kalpurush;-inkscape-font-specification:Kalpurush;text-align:justify;text-anchor:start"
           id="tspan61">	</tspan><tspan
           style="font-family:Kalpurush;-inkscape-font-specification:Kalpurush;text-align:justify;text-anchor:start"
           id="tspan62">আমি তাহার সর্বাঙ্গীণ উন্নতি ও মঙ্গল কামনা করি।
</tspan></tspan></text>
  </g>
</svg>
